<mxfile host="65bd71144e">
    <diagram id="vtqhMz_9YosVgaXp1O4H" name="Página-1">
        <mxGraphModel dx="504" dy="620" grid="1" gridSize="10" guides="1" tooltips="1" connect="1" arrows="1" fold="1" page="1" pageScale="1" pageWidth="827" pageHeight="1169" math="0" shadow="0">
            <root>
                <mxCell id="0"/>
                <mxCell id="1" parent="0"/>
                <mxCell id="18" style="edgeStyle=none;html=1;fontColor=default;strokeWidth=3;" edge="1" parent="1" source="7" target="14">
                    <mxGeometry relative="1" as="geometry"/>
                </mxCell>
                <mxCell id="7" value="PERSONAL" style="shape=umlActor;verticalLabelPosition=bottom;verticalAlign=top;html=1;outlineConnect=0;fontColor=#33FF33;fillColor=#33FF33;strokeColor=#33FF33;fontStyle=1;strokeWidth=3;perimeterSpacing=2;" parent="1" vertex="1">
                    <mxGeometry x="70" y="120" width="80" height="140" as="geometry"/>
                </mxCell>
                <mxCell id="29" style="edgeStyle=none;html=1;fontColor=#33FF33;strokeWidth=4;strokeColor=#FFFFFF;" edge="1" parent="1" source="14" target="27">
                    <mxGeometry relative="1" as="geometry"/>
                </mxCell>
                <mxCell id="14" value="&lt;span&gt;TELA PRINCIAL&lt;br&gt;SPLASH&lt;br&gt;&lt;/span&gt;" style="html=1;verticalLabelPosition=middle;align=center;labelBackgroundColor=none;verticalAlign=middle;strokeWidth=2;shadow=0;dashed=0;shape=mxgraph.ios7.icons.smartphone;fontStyle=1;fontColor=#ffffff;spacingTop=2;spacing=2;spacingBottom=0;labelPosition=center;fillColor=#647687;strokeColor=#314354;" parent="1" vertex="1">
                    <mxGeometry x="280" y="30" width="150" height="320" as="geometry"/>
                </mxCell>
                <mxCell id="16" value="" style="html=1;verticalLabelPosition=bottom;align=center;labelBackgroundColor=#ffffff;verticalAlign=top;strokeWidth=2;strokeColor=#0080F0;shadow=0;dashed=0;shape=mxgraph.ios7.icons.smartphone;fontColor=#FFE605;" vertex="1" parent="1">
                    <mxGeometry x="610" y="30" width="140" height="320" as="geometry"/>
                </mxCell>
                <mxCell id="20" value="" style="group" vertex="1" connectable="0" parent="1">
                    <mxGeometry x="490" y="710" width="177" height="180" as="geometry"/>
                </mxCell>
                <mxCell id="6" value="&lt;font color=&quot;#ffe605&quot;&gt;Autenticação&lt;/font&gt;" style="label;whiteSpace=wrap;html=1;align=center;verticalAlign=bottom;spacingLeft=0;spacingBottom=4;imageAlign=center;imageVerticalAlign=top;image=img/clipart/Gear_128x128.png;fontColor=#000000;" parent="20" vertex="1">
                    <mxGeometry x="73.55844155844156" width="103.44155844155844" height="75.78947368421052" as="geometry"/>
                </mxCell>
                <mxCell id="12" style="edgeStyle=none;html=1;exitX=1;exitY=0.5;exitDx=0;exitDy=0;entryX=0.5;entryY=1;entryDx=0;entryDy=0;fontColor=#FFE605;strokeWidth=2;fillColor=#d5e8d4;gradientColor=#97d077;strokeColor=#82b366;" parent="20" source="10" target="6" edge="1">
                    <mxGeometry relative="1" as="geometry">
                        <Array as="points">
                            <mxPoint x="125.27922077922078" y="135"/>
                        </Array>
                    </mxGeometry>
                </mxCell>
                <mxCell id="10" value="" style="aspect=fixed;perimeter=ellipsePerimeter;html=1;align=center;shadow=0;dashed=0;spacingTop=3;image;image=img/lib/active_directory/web_server.svg;fontColor=#FFE605;" parent="20" vertex="1">
                    <mxGeometry y="104.21052631578947" width="53.05263157894736" height="66.3157894736842" as="geometry"/>
                </mxCell>
                <mxCell id="11" style="edgeStyle=none;html=1;exitX=0;exitY=0.5;exitDx=0;exitDy=0;entryX=0;entryY=0;entryDx=0;entryDy=0;fontColor=#FFE605;strokeWidth=2;fillColor=#dae8fc;gradientColor=#7ea6e0;strokeColor=#6c8ebf;" parent="20" source="6" target="10" edge="1">
                    <mxGeometry relative="1" as="geometry">
                        <Array as="points">
                            <mxPoint x="10.344155844155846" y="37.89473684210526"/>
                        </Array>
                    </mxGeometry>
                </mxCell>
                <mxCell id="27" value="&lt;span&gt;TELA LOGIN&lt;br&gt;&lt;/span&gt;" style="html=1;verticalLabelPosition=top;align=center;labelBackgroundColor=none;verticalAlign=bottom;strokeWidth=2;shadow=0;dashed=0;shape=mxgraph.ios7.icons.smartphone;fontStyle=1;fontColor=#3399FF;spacingTop=2;spacing=2;spacingBottom=0;labelPosition=left;fillColor=#647687;strokeColor=#314354;" vertex="1" parent="1">
                    <mxGeometry x="280" y="430" width="150" height="320" as="geometry"/>
                </mxCell>
                <mxCell id="34" value="e-mail" style="strokeWidth=1;html=1;shadow=0;dashed=0;shape=mxgraph.ios.iTextInput;strokeColor=#666666;buttonText=;fontSize=8;whiteSpace=wrap;align=center;labelBackgroundColor=none;fontColor=#333333;fillColor=#f5f5f5;" vertex="1" parent="1">
                    <mxGeometry x="300" y="530" width="110" height="15" as="geometry"/>
                </mxCell>
                <mxCell id="36" value="password" style="strokeWidth=1;html=1;shadow=0;dashed=0;shape=mxgraph.ios.iTextInput;strokeColor=#666666;buttonText=;fontSize=8;whiteSpace=wrap;align=center;labelBackgroundColor=none;fontColor=#333333;fillColor=#f5f5f5;" vertex="1" parent="1">
                    <mxGeometry x="300" y="570" width="110" height="15" as="geometry"/>
                </mxCell>
                <mxCell id="37" value="Submit" style="rounded=1;html=1;shadow=0;dashed=0;whiteSpace=wrap;fontSize=10;fillColor=#1ba1e2;align=center;strokeColor=#006EAF;fontColor=#ffffff;labelBackgroundColor=none;" vertex="1" parent="1">
                    <mxGeometry x="300" y="610" width="110" height="16.88" as="geometry"/>
                </mxCell>
                <mxCell id="45" style="edgeStyle=orthogonalEdgeStyle;html=1;fontColor=#FFFFFF;endArrow=block;strokeColor=#66FFFF;strokeWidth=2;" edge="1" parent="1" source="39" target="41">
                    <mxGeometry relative="1" as="geometry"/>
                </mxCell>
                <mxCell id="39" value="Create User" style="rounded=1;html=1;shadow=0;dashed=0;whiteSpace=wrap;fontSize=10;fillColor=#666666;align=center;strokeColor=#66FFFF;fontColor=#ffffff;labelBackgroundColor=none;strokeWidth=2;" vertex="1" parent="1">
                    <mxGeometry x="300" y="660" width="110" height="16.88" as="geometry"/>
                </mxCell>
                <mxCell id="31" style="edgeStyle=orthogonalEdgeStyle;html=1;entryX=0.5;entryY=0;entryDx=0;entryDy=0;fontColor=#3399FF;strokeColor=#006EAF;strokeWidth=4;endArrow=block;endWidth=22.666666666666668;fillColor=#1ba1e2;exitX=1;exitY=0.5;exitDx=0;exitDy=0;" edge="1" parent="1" source="37" target="6">
                    <mxGeometry relative="1" as="geometry">
                        <Array as="points">
                            <mxPoint x="615" y="618"/>
                        </Array>
                        <mxPoint x="300" y="618" as="sourcePoint"/>
                    </mxGeometry>
                </mxCell>
                <mxCell id="41" value="&lt;span&gt;TELA LOGIN&lt;br&gt;&lt;/span&gt;" style="html=1;verticalLabelPosition=bottom;align=left;labelBackgroundColor=none;verticalAlign=top;strokeWidth=2;shadow=0;dashed=0;shape=mxgraph.ios7.icons.smartphone;fontStyle=1;fontColor=#FFFFFF;spacingTop=2;spacing=2;spacingBottom=0;labelPosition=right;fillColor=#647687;strokeColor=#314354;" vertex="1" parent="1">
                    <mxGeometry x="50" y="640" width="150" height="320" as="geometry"/>
                </mxCell>
                <mxCell id="42" value="e-mail" style="strokeWidth=1;html=1;shadow=0;dashed=0;shape=mxgraph.ios.iTextInput;strokeColor=#666666;buttonText=;fontSize=8;whiteSpace=wrap;align=center;labelBackgroundColor=none;fontColor=#333333;fillColor=#f5f5f5;" vertex="1" parent="1">
                    <mxGeometry x="70" y="770" width="110" height="15" as="geometry"/>
                </mxCell>
                <mxCell id="43" value="confirm pass" style="strokeWidth=1;html=1;shadow=0;dashed=0;shape=mxgraph.ios.iTextInput;strokeColor=#666666;buttonText=;fontSize=8;whiteSpace=wrap;align=center;labelBackgroundColor=none;fontColor=#333333;fillColor=#f5f5f5;" vertex="1" parent="1">
                    <mxGeometry x="70" y="833.12" width="110" height="15" as="geometry"/>
                </mxCell>
                <mxCell id="49" style="edgeStyle=orthogonalEdgeStyle;html=1;entryX=0;entryY=0.5;entryDx=0;entryDy=0;fontColor=#33FF33;endArrow=block;strokeColor=#66FF66;strokeWidth=3;fillColor=#60a917;" edge="1" parent="1" source="44" target="10">
                    <mxGeometry relative="1" as="geometry"/>
                </mxCell>
                <mxCell id="44" value="Submit" style="rounded=1;html=1;shadow=0;dashed=0;whiteSpace=wrap;fontSize=10;fillColor=#60a917;align=center;strokeColor=#2D7600;fontColor=#ffffff;labelBackgroundColor=none;" vertex="1" parent="1">
                    <mxGeometry x="70" y="873.12" width="110" height="16.88" as="geometry"/>
                </mxCell>
                <mxCell id="46" value="Name&amp;nbsp;" style="strokeWidth=1;html=1;shadow=0;dashed=0;shape=mxgraph.ios.iTextInput;strokeColor=#666666;buttonText=;fontSize=8;whiteSpace=wrap;align=center;labelBackgroundColor=none;fontColor=#333333;fillColor=#f5f5f5;" vertex="1" parent="1">
                    <mxGeometry x="70" y="720" width="110" height="15" as="geometry"/>
                </mxCell>
                <mxCell id="48" value="password" style="strokeWidth=1;html=1;shadow=0;dashed=0;shape=mxgraph.ios.iTextInput;strokeColor=#666666;buttonText=;fontSize=8;whiteSpace=wrap;align=center;labelBackgroundColor=none;fontColor=#333333;fillColor=#f5f5f5;" vertex="1" parent="1">
                    <mxGeometry x="70" y="800" width="110" height="15" as="geometry"/>
                </mxCell>
                <mxCell id="50" style="edgeStyle=orthogonalEdgeStyle;html=1;entryX=0.526;entryY=1.01;entryDx=0;entryDy=0;entryPerimeter=0;fontColor=#33FF33;endArrow=block;strokeColor=#66FF66;strokeWidth=3;exitX=0;exitY=0.25;exitDx=0;exitDy=0;fillColor=#60a917;" edge="1" parent="1" source="10" target="27">
                    <mxGeometry relative="1" as="geometry">
                        <Array as="points">
                            <mxPoint x="359" y="833"/>
                        </Array>
                    </mxGeometry>
                </mxCell>
            </root>
        </mxGraphModel>
    </diagram>
</mxfile>
